<?xml version="1.0" encoding="UTF-8" standalone="no"?>
<!DOCTYPE svg PUBLIC "-//W3C//DTD SVG 1.1//EN"
 "http://www.w3.org/Graphics/SVG/1.1/DTD/svg11.dtd">
<!-- Generated by graphviz version 2.40.1 (20161225.0304)
 -->
<!-- Title: dependencies Pages: 1 -->
<svg width="1145pt" height="284pt"
 viewBox="0.00 0.00 1145.00 284.00" xmlns="http://www.w3.org/2000/svg" xmlns:xlink="http://www.w3.org/1999/xlink">
<g id="graph0" class="graph" transform="scale(1 1) rotate(0) translate(4 280)">
<title>dependencies</title>
<polygon fill="#ffffff" stroke="transparent" points="-4,4 -4,-280 1141,-280 1141,4 -4,4"/>
<text text-anchor="start" x="547.5091" y="-42.4" font-family="sans-serif" font-weight="bold" font-size="14.00" fill="#000000">Legend</text>
<polygon fill="#ffffb3" stroke="transparent" points="334.5,-10 334.5,-30 354.5,-30 354.5,-10 334.5,-10"/>
<text text-anchor="start" x="358.129" y="-15.4" font-family="sans-serif" font-size="14.00" fill="#000000"> &#160;Declarations</text>
<polygon fill="#8dd3c7" stroke="transparent" points="447.5,-10 447.5,-30 467.5,-30 467.5,-10 447.5,-10"/>
<text text-anchor="start" x="471.2251" y="-15.4" font-family="sans-serif" font-size="14.00" fill="#000000"> &#160;Module</text>
<polygon fill="#80b1d3" stroke="transparent" points="533.5,-10 533.5,-30 553.5,-30 553.5,-10 533.5,-10"/>
<text text-anchor="start" x="557.2812" y="-15.4" font-family="sans-serif" font-size="14.00" fill="#000000"> &#160;Bootstrap</text>
<polygon fill="#fdb462" stroke="transparent" points="630.5,-10 630.5,-30 650.5,-30 650.5,-10 630.5,-10"/>
<text text-anchor="start" x="654.1732" y="-15.4" font-family="sans-serif" font-size="14.00" fill="#000000"> &#160;Providers</text>
<polygon fill="#fb8072" stroke="transparent" points="726.5,-10 726.5,-30 746.5,-30 746.5,-10 726.5,-10"/>
<text text-anchor="start" x="750.2258" y="-15.4" font-family="sans-serif" font-size="14.00" fill="#000000"> &#160;Exports</text>
<g id="clust1" class="cluster">
<title>cluster_AppModule</title>
<polygon fill="none" stroke="#000000" stroke-dasharray="1,5" points="8,-70 8,-268 1129,-268 1129,-70 8,-70"/>
</g>
<g id="clust2" class="cluster">
<title>cluster_AppModule_declarations</title>
<polygon fill="none" stroke="#000000" points="293,-78 293,-130 1121,-130 1121,-78 293,-78"/>
</g>
<g id="clust8" class="cluster">
<title>cluster_AppModule_imports</title>
<polygon fill="none" stroke="#000000" points="16,-78 16,-130 285,-130 285,-78 16,-78"/>
</g>
<g id="clust10" class="cluster">
<title>cluster_AppModule_bootstrap</title>
<polygon fill="none" stroke="#000000" points="507,-208 507,-260 631,-260 631,-208 507,-208"/>
</g>
<!-- AppComponent -->
<g id="node1" class="node">
<title>AppComponent</title>
<polygon fill="#ffffb3" stroke="#000000" points="1112.9399,-122 1007.0601,-122 1007.0601,-86 1112.9399,-86 1112.9399,-122"/>
<text text-anchor="middle" x="1060" y="-99.8" font-family="Times,serif" font-size="14.00" fill="#000000">AppComponent</text>
</g>
<!-- AppModule -->
<g id="node6" class="node">
<title>AppModule</title>
<polygon fill="#8dd3c7" stroke="#000000" points="610.6571,-187 607.6571,-191 586.6571,-191 583.6571,-187 527.3429,-187 527.3429,-151 610.6571,-151 610.6571,-187"/>
<text text-anchor="middle" x="569" y="-164.8" font-family="Times,serif" font-size="14.00" fill="#000000">AppModule</text>
</g>
<!-- AppComponent&#45;&gt;AppModule -->
<g id="edge1" class="edge">
<title>AppComponent&#45;&gt;AppModule</title>
<path fill="none" stroke="#000000" d="M1060,-122.2921C1060,-144.2057 1060,-178 1060,-178 1060,-178 620.8624,-178 620.8624,-178"/>
<polygon fill="#000000" stroke="#000000" points="620.8624,-174.5001 610.8624,-178 620.8623,-181.5001 620.8624,-174.5001"/>
</g>
<!-- CreateEmployeeComponent -->
<g id="node2" class="node">
<title>CreateEmployeeComponent</title>
<polygon fill="#ffffb3" stroke="#000000" points="989.1274,-122 814.8726,-122 814.8726,-86 989.1274,-86 989.1274,-122"/>
<text text-anchor="middle" x="902" y="-99.8" font-family="Times,serif" font-size="14.00" fill="#000000">CreateEmployeeComponent</text>
</g>
<!-- CreateEmployeeComponent&#45;&gt;AppModule -->
<g id="edge2" class="edge">
<title>CreateEmployeeComponent&#45;&gt;AppModule</title>
<path fill="none" stroke="#000000" d="M902,-122.1061C902,-141.3391 902,-169 902,-169 902,-169 620.8375,-169 620.8375,-169"/>
<polygon fill="#000000" stroke="#000000" points="620.8375,-165.5001 610.8375,-169 620.8375,-172.5001 620.8375,-165.5001"/>
</g>
<!-- EmployeeComponent -->
<g id="node3" class="node">
<title>EmployeeComponent</title>
<polygon fill="#ffffb3" stroke="#000000" points="797.0954,-122 658.9046,-122 658.9046,-86 797.0954,-86 797.0954,-122"/>
<text text-anchor="middle" x="728" y="-99.8" font-family="Times,serif" font-size="14.00" fill="#000000">EmployeeComponent</text>
</g>
<!-- EmployeeComponent&#45;&gt;AppModule -->
<g id="edge3" class="edge">
<title>EmployeeComponent&#45;&gt;AppModule</title>
<path fill="none" stroke="#000000" d="M728,-122.027C728,-138.3976 728,-160 728,-160 728,-160 620.7754,-160 620.7754,-160"/>
<polygon fill="#000000" stroke="#000000" points="620.7754,-156.5001 610.7754,-160 620.7753,-163.5001 620.7754,-156.5001"/>
</g>
<!-- EmployeesComponent -->
<g id="node4" class="node">
<title>EmployeesComponent</title>
<polygon fill="#ffffb3" stroke="#000000" points="640.5407,-122 497.4593,-122 497.4593,-86 640.5407,-86 640.5407,-122"/>
<text text-anchor="middle" x="569" y="-99.8" font-family="Times,serif" font-size="14.00" fill="#000000">EmployeesComponent</text>
</g>
<!-- EmployeesComponent&#45;&gt;AppModule -->
<g id="edge4" class="edge">
<title>EmployeesComponent&#45;&gt;AppModule</title>
<path fill="none" stroke="#000000" d="M569,-122.1061C569,-122.1061 569,-140.991 569,-140.991"/>
<polygon fill="#000000" stroke="#000000" points="565.5001,-140.9909 569,-150.991 572.5001,-140.991 565.5001,-140.9909"/>
</g>
<!-- UpdateEmployeeComponent -->
<g id="node5" class="node">
<title>UpdateEmployeeComponent</title>
<polygon fill="#ffffb3" stroke="#000000" points="479.0224,-122 300.9776,-122 300.9776,-86 479.0224,-86 479.0224,-122"/>
<text text-anchor="middle" x="390" y="-99.8" font-family="Times,serif" font-size="14.00" fill="#000000">UpdateEmployeeComponent</text>
</g>
<!-- UpdateEmployeeComponent&#45;&gt;AppModule -->
<g id="edge5" class="edge">
<title>UpdateEmployeeComponent&#45;&gt;AppModule</title>
<path fill="none" stroke="#000000" d="M390,-122.027C390,-138.3976 390,-160 390,-160 390,-160 517.0325,-160 517.0325,-160"/>
<polygon fill="#000000" stroke="#000000" points="517.0325,-163.5001 527.0325,-160 517.0324,-156.5001 517.0325,-163.5001"/>
</g>
<!-- AppComponent  -->
<g id="node9" class="node">
<title>AppComponent </title>
<polygon fill="#80b1d3" stroke="#000000" points="623.439,-252 514.561,-252 514.561,-216 623.439,-216 623.439,-252"/>
<text text-anchor="middle" x="569" y="-229.8" font-family="Times,serif" font-size="14.00" fill="#000000">AppComponent </text>
</g>
<!-- AppModule&#45;&gt;AppComponent  -->
<g id="edge8" class="edge">
<title>AppModule&#45;&gt;AppComponent </title>
<path fill="none" stroke="#000000" stroke-dasharray="1,5" d="M569,-187.1061C569,-187.1061 569,-205.991 569,-205.991"/>
<polygon fill="#000000" stroke="#000000" points="565.5001,-205.9909 569,-215.991 572.5001,-205.991 565.5001,-205.9909"/>
</g>
<!-- AppRoutingModule -->
<g id="node7" class="node">
<title>AppRoutingModule</title>
<polygon fill="#8dd3c7" stroke="#000000" points="277.2744,-122 274.2744,-126 253.2744,-126 250.2744,-122 148.7256,-122 148.7256,-86 277.2744,-86 277.2744,-122"/>
<text text-anchor="middle" x="213" y="-99.8" font-family="Times,serif" font-size="14.00" fill="#000000">AppRoutingModule</text>
</g>
<!-- AppRoutingModule&#45;&gt;AppModule -->
<g id="edge6" class="edge">
<title>AppRoutingModule&#45;&gt;AppModule</title>
<path fill="none" stroke="#000000" d="M213,-122.1061C213,-141.3391 213,-169 213,-169 213,-169 517.1154,-169 517.1154,-169"/>
<polygon fill="#000000" stroke="#000000" points="517.1155,-172.5001 527.1154,-169 517.1154,-165.5001 517.1155,-172.5001"/>
</g>
<!-- MaterialModule -->
<g id="node8" class="node">
<title>MaterialModule</title>
<polygon fill="#8dd3c7" stroke="#000000" points="130.4706,-122 127.4706,-126 106.4706,-126 103.4706,-122 23.5294,-122 23.5294,-86 130.4706,-86 130.4706,-122"/>
<text text-anchor="middle" x="77" y="-99.8" font-family="Times,serif" font-size="14.00" fill="#000000">MaterialModule</text>
</g>
<!-- MaterialModule&#45;&gt;AppModule -->
<g id="edge7" class="edge">
<title>MaterialModule&#45;&gt;AppModule</title>
<path fill="none" stroke="#000000" d="M77,-122.2921C77,-144.2057 77,-178 77,-178 77,-178 517.0524,-178 517.0524,-178"/>
<polygon fill="#000000" stroke="#000000" points="517.0524,-181.5001 527.0524,-178 517.0523,-174.5001 517.0524,-181.5001"/>
</g>
</g>
</svg>
